<?xml version="1.0" standalone="no"?>
<svg xmlns:xlink="http://www.w3.org/1999/xlink" id="wave" style="transform:rotate(180deg); transition: 0.3s" viewBox="0 0 1440 490" version="1.1" xmlns="http://www.w3.org/2000/svg"><defs><linearGradient id="sw-gradient-0" x1="0" x2="0" y1="1" y2="0"><stop stop-color="rgba(255, 140, 0, 1)" offset="0%"/><stop stop-color="rgba(255, 179, 11, 1)" offset="100%"/></linearGradient></defs><path style="transform:translate(0, 0px); opacity:1" fill="url(#sw-gradient-0)" d="M0,441L48,375.7C96,310,192,180,288,147C384,114,480,180,576,220.5C672,261,768,278,864,245C960,212,1056,131,1152,114.3C1248,98,1344,147,1440,196C1536,245,1632,294,1728,334.8C1824,376,1920,408,2016,351.2C2112,294,2208,147,2304,106.2C2400,65,2496,131,2592,179.7C2688,229,2784,261,2880,245C2976,229,3072,163,3168,155.2C3264,147,3360,196,3456,220.5C3552,245,3648,245,3744,236.8C3840,229,3936,212,4032,196C4128,180,4224,163,4320,147C4416,131,4512,114,4608,163.3C4704,212,4800,327,4896,351.2C4992,376,5088,310,5184,310.3C5280,310,5376,376,5472,367.5C5568,359,5664,278,5760,277.7C5856,278,5952,359,6048,367.5C6144,376,6240,310,6336,236.8C6432,163,6528,82,6624,49C6720,16,6816,33,6864,40.8L6912,49L6912,490L6864,490C6816,490,6720,490,6624,490C6528,490,6432,490,6336,490C6240,490,6144,490,6048,490C5952,490,5856,490,5760,490C5664,490,5568,490,5472,490C5376,490,5280,490,5184,490C5088,490,4992,490,4896,490C4800,490,4704,490,4608,490C4512,490,4416,490,4320,490C4224,490,4128,490,4032,490C3936,490,3840,490,3744,490C3648,490,3552,490,3456,490C3360,490,3264,490,3168,490C3072,490,2976,490,2880,490C2784,490,2688,490,2592,490C2496,490,2400,490,2304,490C2208,490,2112,490,2016,490C1920,490,1824,490,1728,490C1632,490,1536,490,1440,490C1344,490,1248,490,1152,490C1056,490,960,490,864,490C768,490,672,490,576,490C480,490,384,490,288,490C192,490,96,490,48,490L0,490Z"/></svg>